<?xml version="1.0" encoding="UTF-8" standalone="no"?>
<svg
   xmlns:dc="http://purl.org/dc/elements/1.1/"
   xmlns:cc="http://creativecommons.org/ns#"
   xmlns:rdf="http://www.w3.org/1999/02/22-rdf-syntax-ns#"
   xmlns:svg="http://www.w3.org/2000/svg"
   xmlns="http://www.w3.org/2000/svg"
   xmlns:sodipodi="http://sodipodi.sourceforge.net/DTD/sodipodi-0.dtd"
   xmlns:inkscape="http://www.inkscape.org/namespaces/inkscape"
   width="28.603193mm"
   height="7.2372532mm"
   viewBox="0 0 28.603193 7.2372532"
   version="1.1"
   id="svg8"
   inkscape:version="0.92.5 (2060ec1f9f, 2020-04-08)"
   sodipodi:docname="logo.svg">
  <defs
     id="defs2" />
  <sodipodi:namedview
     id="base"
     pagecolor="#ffffff"
     bordercolor="#666666"
     borderopacity="1.0"
     inkscape:pageopacity="0.0"
     inkscape:pageshadow="2"
     inkscape:zoom="12.72305"
     inkscape:cx="47.350682"
     inkscape:cy="13.591233"
     inkscape:document-units="mm"
     inkscape:current-layer="layer1"
     inkscape:document-rotation="0"
     showgrid="false"
     inkscape:window-width="1920"
     inkscape:window-height="1015"
     inkscape:window-x="1080"
     inkscape:window-y="435"
     inkscape:window-maximized="1"
     fit-margin-top="0"
     fit-margin-left="0"
     fit-margin-right="0"
     fit-margin-bottom="0" />
  <metadata
     id="metadata5">
    <rdf:RDF>
      <cc:Work
         rdf:about="">
        <dc:format>image/svg+xml</dc:format>
        <dc:type
           rdf:resource="http://purl.org/dc/dcmitype/StillImage" />
        <dc:title></dc:title>
      </cc:Work>
    </rdf:RDF>
  </metadata>
  <g
     inkscape:label="Layer 1"
     inkscape:groupmode="layer"
     id="layer1"
     transform="translate(-39.714083,-115.67014)">
    <path
       inkscape:connector-curvature="0"
       id="path868"
       style="font-style:normal;font-variant:normal;font-weight:normal;font-stretch:normal;font-size:26.66670036px;line-height:1.25;font-family:'Tlwg Typo';-inkscape-font-specification:'Tlwg Typo';font-variant-ligatures:normal;font-variant-position:normal;font-variant-caps:normal;font-variant-numeric:normal;font-variant-alternates:normal;font-feature-settings:normal;text-indent:0;text-align:start;text-decoration:none;text-decoration-line:none;text-decoration-style:solid;text-decoration-color:#000000;letter-spacing:normal;word-spacing:normal;text-transform:none;writing-mode:lr-tb;direction:ltr;text-orientation:mixed;dominant-baseline:auto;baseline-shift:baseline;text-anchor:start;white-space:normal;shape-padding:0;fill:#000000;fill-opacity:0.9842932;stroke:none;stroke-width:0.26458305;stroke-linecap:butt;stroke-linejoin:miter;stroke-miterlimit:4;stroke-dasharray:none;stroke-dashoffset:0;stroke-opacity:1"
       d="m 40.285583,119.35314 v -3.39372 h -0.381 q -0.1905,0 -0.1905,-0.14817 0,-0.14111 0.1905,-0.14111 h 1.820336 q 0.515054,0 0.860777,0.29633 0.345723,0.28928 0.345723,0.72673 0,0.52211 -0.599723,0.84667 0.896057,0.3175 0.896057,1.02305 0,0.4445 -0.345723,0.762 -0.338667,0.3175 -0.818444,0.3175 h -2.159003 q -0.1905,0 -0.1905,-0.14817 0,-0.14111 0.1905,-0.14111 z m 0.289277,-1.91911 h 1.03717 q 0.451556,0 0.740833,-0.21166 0.289279,-0.21167 0.289279,-0.53623 0,-0.31044 -0.261056,-0.51505 -0.261056,-0.21167 -0.649113,-0.21167 H 40.57486 Z m 0,1.91911 h 1.467559 q 0.373944,0 0.635,-0.22577 0.261057,-0.23284 0.261057,-0.56445 0,-0.127 -0.05645,-0.254 -0.05644,-0.13405 -0.1905,-0.26811 -0.127,-0.14111 -0.409223,-0.22578 -0.275167,-0.0917 -0.656167,-0.0917 h -1.05128 z" />
    <path
       inkscape:connector-curvature="0"
       id="path870"
       style="font-style:normal;font-variant:normal;font-weight:normal;font-stretch:normal;font-size:26.66670036px;line-height:1.25;font-family:'Tlwg Typo';-inkscape-font-specification:'Tlwg Typo';font-variant-ligatures:normal;font-variant-position:normal;font-variant-caps:normal;font-variant-numeric:normal;font-variant-alternates:normal;font-feature-settings:normal;text-indent:0;text-align:start;text-decoration:none;text-decoration-line:none;text-decoration-style:solid;text-decoration-color:#000000;letter-spacing:normal;word-spacing:normal;text-transform:none;writing-mode:lr-tb;direction:ltr;text-orientation:mixed;dominant-baseline:auto;baseline-shift:baseline;text-anchor:start;white-space:normal;shape-padding:0;fill:#000000;fill-opacity:1;stroke:none;stroke-width:0.26458305;stroke-linecap:butt;stroke-linejoin:miter;stroke-miterlimit:4;stroke-dasharray:none;stroke-dashoffset:0;stroke-opacity:1"
       d="m 45.760691,116.60148 q 0.677333,0 1.143,0.46566 0.465669,0.45861 0.465669,1.12889 0,0.64911 -0.472723,1.10772 -0.472723,0.45156 -1.135946,0.45156 -0.67028,0 -1.143003,-0.45861 -0.465666,-0.45861 -0.465666,-1.12183 0,-0.64912 0.465666,-1.10773 0.472723,-0.46566 1.143003,-0.46566 z m 0,0.28927 q -0.550336,0 -0.93839,0.37395 -0.381002,0.37394 -0.381002,0.91017 0,0.53622 0.381002,0.91722 0.388054,0.37394 0.93839,0.37394 0.543277,0 0.931333,-0.37394 0.388057,-0.37395 0.388057,-0.89606 0,-0.55739 -0.381,-0.93133 -0.381,-0.37395 -0.93839,-0.37395 z" />
    <path
       inkscape:connector-curvature="0"
       id="path872"
       style="font-style:normal;font-variant:normal;font-weight:normal;font-stretch:normal;font-size:26.66670036px;line-height:1.25;font-family:'Tlwg Typo';-inkscape-font-specification:'Tlwg Typo';font-variant-ligatures:normal;font-variant-position:normal;font-variant-caps:normal;font-variant-numeric:normal;font-variant-alternates:normal;font-feature-settings:normal;text-indent:0;text-align:start;text-decoration:none;text-decoration-line:none;text-decoration-style:solid;text-decoration-color:#000000;letter-spacing:normal;word-spacing:normal;text-transform:none;writing-mode:lr-tb;direction:ltr;text-orientation:mixed;dominant-baseline:auto;baseline-shift:baseline;text-anchor:start;white-space:normal;shape-padding:0;fill:#000000;fill-opacity:1;stroke:none;stroke-width:0.26458305;stroke-linecap:butt;stroke-linejoin:miter;stroke-miterlimit:4;stroke-dasharray:none;stroke-dashoffset:0;stroke-opacity:1"
       d="m 49.189683,116.70025 h 1.552226 q 0.1905,0 0.1905,0.14112 0,0.14816 -0.1905,0.14816 h -1.552226 v 1.88384 q 0,0.26811 0.211667,0.43038 0.211669,0.16228 0.578556,0.16228 0.296336,0 0.627946,-0.0776 0.338667,-0.0847 0.54328,-0.20461 0.07055,-0.0423 0.112887,-0.0423 0.04939,0 0.09172,0.0423 0.04233,0.0423 0.04233,0.0988 0,0.15522 -0.479777,0.3175 -0.472723,0.15522 -0.924279,0.15522 -0.500946,0 -0.79728,-0.23283 -0.296333,-0.23989 -0.296333,-0.635 v -1.89795 h -0.522113 q -0.197554,0 -0.197554,-0.14816 0,-0.14112 0.197554,-0.14112 H 48.9004 v -0.83961 q 0,-0.1905 0.148167,-0.1905 0.14111,0 0.14111,0.1905 z" />
    <path
       inkscape:connector-curvature="0"
       id="path874"
       style="font-style:normal;font-variant:normal;font-weight:normal;font-stretch:normal;font-size:26.66670036px;line-height:1.25;font-family:'Tlwg Typo';-inkscape-font-specification:'Tlwg Typo';font-variant-ligatures:normal;font-variant-position:normal;font-variant-caps:normal;font-variant-numeric:normal;font-variant-alternates:normal;font-feature-settings:normal;text-indent:0;text-align:start;text-decoration:none;text-decoration-line:none;text-decoration-style:solid;text-decoration-color:#000000;letter-spacing:normal;word-spacing:normal;text-transform:none;writing-mode:lr-tb;direction:ltr;text-orientation:mixed;dominant-baseline:auto;baseline-shift:baseline;text-anchor:start;white-space:normal;shape-padding:0;fill:#000000;fill-opacity:1;stroke:none;stroke-width:0.26458305;stroke-linecap:butt;stroke-linejoin:miter;stroke-miterlimit:4;stroke-dasharray:none;stroke-dashoffset:0;stroke-opacity:1"
       d="m 55.22218,119.64242 h -0.352777 l -0.642056,-1.82739 -0.627946,1.82739 h -0.359834 l -0.592666,-2.65289 h -0.134057 q -0.1905,0 -0.1905,-0.14816 0,-0.14112 0.1905,-0.14112 h 0.783167 q 0.1905,0 0.1905,0.14112 0,0.14816 -0.1905,0.14816 h -0.373944 l 0.508,2.25778 0.60678,-1.79917 h 0.359833 l 0.627944,1.79917 0.486836,-2.25778 h -0.35278 q -0.1905,0 -0.1905,-0.14816 0,-0.14112 0.1905,-0.14112 h 0.783167 q 0.190503,0 0.190503,0.14112 0,0.14816 -0.190503,0.14816 h -0.134054 z" />
    <path
       inkscape:connector-curvature="0"
       id="path876"
       style="font-style:normal;font-variant:normal;font-weight:normal;font-stretch:normal;font-size:26.66670036px;line-height:1.25;font-family:'Tlwg Typo';-inkscape-font-specification:'Tlwg Typo';font-variant-ligatures:normal;font-variant-position:normal;font-variant-caps:normal;font-variant-numeric:normal;font-variant-alternates:normal;font-feature-settings:normal;text-indent:0;text-align:start;text-decoration:none;text-decoration-line:none;text-decoration-style:solid;text-decoration-color:#000000;letter-spacing:normal;word-spacing:normal;text-transform:none;writing-mode:lr-tb;direction:ltr;text-orientation:mixed;dominant-baseline:auto;baseline-shift:baseline;text-anchor:start;white-space:normal;shape-padding:0;fill:#000000;fill-opacity:1;stroke:none;stroke-width:0.26458305;stroke-linecap:butt;stroke-linejoin:miter;stroke-miterlimit:4;stroke-dasharray:none;stroke-dashoffset:0;stroke-opacity:1"
       d="m 58.432452,116.89075 q -0.197557,0 -0.4445,0.0564 -0.246946,0.0564 -0.423334,0.11289 -0.176389,0.0564 -0.204612,0.0564 -0.05644,0 -0.09878,-0.0423 -0.03528,-0.0423 -0.03528,-0.0988 0,-0.10583 0.119946,-0.14817 0.656167,-0.22577 1.107723,-0.22577 0.49389,0 0.81139,0.24694 0.324557,0.24695 0.324557,0.62089 v 1.88383 h 0.381 q 0.1905,0 0.1905,0.14111 0,0.14817 -0.1905,0.14817 h -0.67028 v -0.47272 q -0.627943,0.58561 -1.34761,0.58561 -0.49389,0 -0.79728,-0.24694 -0.303389,-0.254 -0.303389,-0.65617 0,-0.45861 0.409223,-0.74083 0.416277,-0.28928 1.0795,-0.28928 0.416279,0 0.959556,0.14816 v -0.50094 q 0,-0.26106 -0.239887,-0.41628 -0.23989,-0.16228 -0.627946,-0.16228 z m 0.867833,1.96145 v -0.635 q -0.423333,-0.10583 -0.90311,-0.10583 -0.55739,0 -0.910169,0.21166 -0.345723,0.20461 -0.345723,0.53622 0,0.27517 0.218723,0.4445 0.218723,0.16228 0.585612,0.16228 0.373944,0 0.68439,-0.14111 0.3175,-0.14111 0.670277,-0.47272 z" />
    <path
       inkscape:connector-curvature="0"
       id="path878"
       style="font-style:normal;font-variant:normal;font-weight:normal;font-stretch:normal;font-size:26.66670036px;line-height:1.25;font-family:'Tlwg Typo';-inkscape-font-specification:'Tlwg Typo';font-variant-ligatures:normal;font-variant-position:normal;font-variant-caps:normal;font-variant-numeric:normal;font-variant-alternates:normal;font-feature-settings:normal;text-indent:0;text-align:start;text-decoration:none;text-decoration-line:none;text-decoration-style:solid;text-decoration-color:#000000;letter-spacing:normal;word-spacing:normal;text-transform:none;writing-mode:lr-tb;direction:ltr;text-orientation:mixed;dominant-baseline:auto;baseline-shift:baseline;text-anchor:start;white-space:normal;shape-padding:0;fill:#000000;fill-opacity:1;stroke:none;stroke-width:0.26458305;stroke-linecap:butt;stroke-linejoin:miter;stroke-miterlimit:4;stroke-dasharray:none;stroke-dashoffset:0;stroke-opacity:1"
       d="m 64.246226,117.21531 q -0.04233,0 -0.225777,-0.14817 -0.17639,-0.14816 -0.352779,-0.14816 -0.239888,0 -0.500944,0.16933 -0.254,0.16933 -0.839613,0.70556 v 1.55927 h 1.262946 q 0.1905,0 0.1905,0.14817 0,0.14111 -0.1905,0.14111 H 61.3605 q -0.1905,0 -0.1905,-0.14817 0,-0.14111 0.1905,-0.14111 h 0.677336 v -2.36361 h -0.529169 q -0.1905,0 -0.1905,-0.14816 0,-0.14112 0.1905,-0.14112 h 0.818446 v 0.71967 q 0.486833,-0.4445 0.790223,-0.61383 0.30339,-0.17639 0.5715,-0.17639 0.17639,0 0.437446,0.14111 0.268111,0.14111 0.268111,0.29633 0,0.0635 -0.04233,0.10584 -0.04233,0.0423 -0.105833,0.0423 z" />
    <path
       inkscape:connector-curvature="0"
       id="path880"
       style="font-style:normal;font-variant:normal;font-weight:normal;font-stretch:normal;font-size:26.66670036px;line-height:1.25;font-family:'Tlwg Typo';-inkscape-font-specification:'Tlwg Typo';font-variant-ligatures:normal;font-variant-position:normal;font-variant-caps:normal;font-variant-numeric:normal;font-variant-alternates:normal;font-feature-settings:normal;text-indent:0;text-align:start;text-decoration:none;text-decoration-line:none;text-decoration-style:solid;text-decoration-color:#000000;letter-spacing:normal;word-spacing:normal;text-transform:none;writing-mode:lr-tb;direction:ltr;text-orientation:mixed;dominant-baseline:auto;baseline-shift:baseline;text-anchor:start;white-space:normal;shape-padding:0;fill:#000000;fill-opacity:1;stroke:none;stroke-width:0.26458305;stroke-linecap:butt;stroke-linejoin:miter;stroke-miterlimit:4;stroke-dasharray:none;stroke-dashoffset:0;stroke-opacity:1"
       d="m 67.858664,116.92603 v -0.0282 q 0,-0.19756 0.148167,-0.19756 0.14111,0 0.14111,0.19756 v 0.48683 q 0,0.1905 -0.14111,0.1905 -0.127,0 -0.148167,-0.16227 -0.02822,-0.23989 -0.282223,-0.381 -0.254,-0.14112 -0.656167,-0.14112 -0.395112,0 -0.656166,0.15523 -0.261057,0.14816 -0.261057,0.37394 0,0.40217 0.92428,0.48683 0.26811,0.0282 0.465667,0.0706 0.20461,0.0423 0.437443,0.14111 0.232833,0.0917 0.359833,0.27517 0.127003,0.17639 0.127003,0.43039 0,0.40216 -0.395113,0.67027 -0.388056,0.26106 -0.987779,0.26106 -0.677334,0 -1.107723,-0.381 v 0.0776 q 0,0.1905 -0.141111,0.1905 -0.148166,0 -0.148166,-0.1905 v -0.58561 q 0,-0.1905 0.148166,-0.1905 0.141111,0 0.141111,0.15522 v 0.0494 q 0,0.23989 0.3175,0.41628 0.3175,0.16933 0.769056,0.16933 0.465667,0 0.776113,-0.18344 0.310443,-0.18345 0.310443,-0.46567 0,-0.508 -1.100666,-0.635 -0.246946,-0.0282 -0.423334,-0.0635 -0.176389,-0.0353 -0.381002,-0.11289 -0.197554,-0.0847 -0.303387,-0.23283 -0.105834,-0.15522 -0.105834,-0.37395 0,-0.34572 0.338667,-0.5715 0.345723,-0.22577 0.867833,-0.22577 0.599723,0 0.966613,0.32455 z" />
    <path
       inkscape:connector-curvature="0"
       id="path847"
       style="font-style:normal;font-variant:normal;font-weight:normal;font-stretch:normal;font-size:18.66670036px;line-height:1.25;font-family:Purisa;-inkscape-font-specification:Purisa;font-variant-ligatures:normal;font-variant-position:normal;font-variant-caps:normal;font-variant-numeric:normal;font-variant-alternates:normal;font-feature-settings:normal;text-indent:0;text-align:start;text-decoration:none;text-decoration-line:none;text-decoration-style:solid;text-decoration-color:#000000;letter-spacing:normal;word-spacing:normal;text-transform:none;writing-mode:lr-tb;direction:ltr;text-orientation:mixed;dominant-baseline:auto;baseline-shift:baseline;text-anchor:start;white-space:normal;shape-padding:0;fill:#000000;fill-opacity:1;stroke:none;stroke-width:0.11062655;stroke-linecap:butt;stroke-linejoin:miter;stroke-miterlimit:4;stroke-dasharray:none;stroke-dashoffset:0;stroke-opacity:1"
       d="m 56.635215,120.32291 q 0.06588,0.005 0.16187,-0.004 0.09821,-0.011 0.159973,-0.006 0.02676,0.002 0.0369,0.005 0.07125,0.0159 0.10181,0.0225 0.03056,0.007 0.08312,0.0231 0.05478,0.0146 0.07646,0.0288 0.02374,0.0143 0.05491,0.0395 0.03133,0.0232 0.04349,0.0531 0.01232,0.0279 0.01939,0.0699 0.0071,0.042 0.003,0.0935 -0.0071,0.0906 -0.03952,0.18747 -0.03227,0.0948 -0.05698,0.0929 -0.02676,-0.002 -0.02982,0.037 -0.0037,0.0473 -0.136083,0.15092 -0.132381,0.10357 -0.203504,0.11251 -0.08618,0.016 -0.100304,0.0377 -0.0165,0.0256 -0.135911,0.0163 l -0.121467,-0.01 -0.0084,0.37218 q -0.0029,0.1427 -0.01124,0.24976 -0.0103,0.13176 -0.03553,0.16292 -0.03822,0.0384 -0.06292,0.0365 -0.04529,-0.004 -0.0504,-0.0971 -0.0082,-0.16014 -0.0045,-0.60518 0.0037,-0.44505 0.01565,-0.5974 l 0.01723,-0.22028 -0.06514,0.0384 q -0.04343,0.0256 -0.07431,0.0232 -0.01235,-9.7e-4 -0.02564,-0.0165 -0.01123,-0.0154 -0.0096,-0.036 0.0045,-0.0576 0.131516,-0.17199 0.07135,-0.0649 0.106065,-0.0849 0.03471,-0.0201 0.06971,-0.0173 0.01029,8e-4 0.03468,0.007 0.02454,0.004 0.05542,0.006 z m 0.436732,0.1895 q -0.105123,-0.0331 -0.148357,-0.0365 -0.04118,-0.003 -0.19182,0.0161 -0.110884,0.0141 -0.140224,0.045 -0.02934,0.0309 -0.03852,0.1482 -0.0093,0.11941 -0.0059,0.26053 0.0035,0.14112 0.01848,0.16094 0.0074,0.0109 0.04655,0.014 0.06588,0.005 0.179306,-0.015 0.113588,-0.0222 0.184424,-0.0539 0.04295,-0.0194 0.07418,-0.0481 0.0314,-0.0307 0.03539,-0.0552 0.0097,-0.0448 0.08236,-0.12613 0.07486,-0.0832 0.07921,-0.1388 0.009,-0.11529 -0.17511,-0.17111 z" />
    <path
       inkscape:connector-curvature="0"
       id="path849"
       style="font-style:normal;font-variant:normal;font-weight:normal;font-stretch:normal;font-size:18.66670036px;line-height:1.25;font-family:Purisa;-inkscape-font-specification:Purisa;font-variant-ligatures:normal;font-variant-position:normal;font-variant-caps:normal;font-variant-numeric:normal;font-variant-alternates:normal;font-feature-settings:normal;text-indent:0;text-align:start;text-decoration:none;text-decoration-line:none;text-decoration-style:solid;text-decoration-color:#000000;letter-spacing:normal;word-spacing:normal;text-transform:none;writing-mode:lr-tb;direction:ltr;text-orientation:mixed;dominant-baseline:auto;baseline-shift:baseline;text-anchor:start;white-space:normal;shape-padding:0;fill:#000000;fill-opacity:1;stroke:none;stroke-width:0.11062655;stroke-linecap:butt;stroke-linejoin:miter;stroke-miterlimit:4;stroke-dasharray:none;stroke-dashoffset:0;stroke-opacity:1"
       d="m 57.702477,120.87242 q 0.03075,-0.0225 0.05134,-0.0208 0.04323,0.003 0.05098,0.14277 0.01,0.13748 -0.004,0.52787 -0.0059,0.18182 -0.01736,0.32799 -0.01143,0.14617 -0.02491,0.15962 -0.02712,0.029 -0.06418,0.0261 -0.05147,-0.004 -0.06044,-0.0482 -0.0082,-0.0276 0.0016,-0.41828 0.01,-0.39277 0.02192,-0.54512 0.01,-0.12764 0.04501,-0.15183 z m 0.02548,-0.48477 q 0.0023,-0.0288 0.02715,-0.0559 0.02696,-0.0269 0.04549,-0.0254 0.02059,0.002 0.05333,0.0332 0.03496,0.0297 0.03158,0.0729 -0.0024,0.0309 -0.02271,0.0521 -0.01808,0.0193 -0.0469,0.017 -0.03294,-0.003 -0.06189,-0.0297 -0.02895,-0.0271 -0.02605,-0.0642 z" />
    <path
       inkscape:connector-curvature="0"
       id="path851"
       style="font-style:normal;font-variant:normal;font-weight:normal;font-stretch:normal;font-size:18.66670036px;line-height:1.25;font-family:Purisa;-inkscape-font-specification:Purisa;font-variant-ligatures:normal;font-variant-position:normal;font-variant-caps:normal;font-variant-numeric:normal;font-variant-alternates:normal;font-feature-settings:normal;text-indent:0;text-align:start;text-decoration:none;text-decoration-line:none;text-decoration-style:solid;text-decoration-color:#000000;letter-spacing:normal;word-spacing:normal;text-transform:none;writing-mode:lr-tb;direction:ltr;text-orientation:mixed;dominant-baseline:auto;baseline-shift:baseline;text-anchor:start;white-space:normal;shape-padding:0;fill:#000000;fill-opacity:1;stroke:none;stroke-width:0.11062655;stroke-linecap:butt;stroke-linejoin:miter;stroke-miterlimit:4;stroke-dasharray:none;stroke-dashoffset:0;stroke-opacity:1"
       d="m 58.969932,122.54368 q 0.100878,0.008 0.107801,-0.0806 0.01175,-0.15029 0.0084,-0.26655 -0.0014,-0.11403 -0.01179,-0.19355 -0.0083,-0.0794 -0.0076,-0.11452 0.002,-0.21112 -0.0124,-0.21225 -0.0082,-6.4e-4 -0.03378,0.0346 -0.05743,0.0722 -0.180121,0.15784 -0.122697,0.0857 -0.201125,0.10855 -0.09126,0.0281 -0.198317,0.0197 -0.06588,-0.005 -0.103709,-0.0247 -0.03577,-0.0194 -0.09335,-0.0777 -0.05552,-0.0582 -0.077,-0.10131 -0.02148,-0.0431 -0.02994,-0.1204 -0.0085,-0.0773 -0.0043,-0.13083 0.0031,-0.0391 0.01069,-0.0572 0.01876,-0.0545 0.0897,-0.16698 0.07094,-0.11252 0.127561,-0.17438 0.04774,-0.0543 0.171047,-0.12126 0.125525,-0.0689 0.218365,-0.0906 0.09712,-0.0235 0.218583,-0.014 0.152348,0.0119 0.24904,0.0733 0.09685,0.0594 0.08832,0.16848 -0.0048,0.0618 -0.04279,0.14993 -0.03591,0.0883 -0.04122,0.15627 -0.0027,0.035 -0.0059,0.68515 l -0.0024,0.42857 -0.07656,0.052 q -0.06135,0.0429 -0.121052,0.0382 -0.109114,-0.009 -0.261232,-0.0764 -0.152279,-0.0658 -0.259876,-0.14667 -0.107756,-0.0789 -0.104214,-0.12415 0.0042,-0.0535 0.06589,-0.12741 0.06376,-0.0737 0.102879,-0.0707 0.04529,0.004 0.04288,0.0344 -0.0014,0.0185 -0.02287,0.0541 -0.02143,0.0356 -0.02416,0.0706 -0.0045,0.0576 0.06829,0.10684 0.07279,0.0492 0.12632,0.0534 0.03088,0.002 0.09766,0.0491 0.06884,0.0468 0.122364,0.051 z M 58.2607,121.54783 q -0.0093,0.11941 0.0447,0.22306 0.05403,0.10365 0.146678,0.1109 0.125584,0.01 0.278551,-0.0921 0.155188,-0.10386 0.259135,-0.26766 0.05698,-0.0929 0.101636,-0.21368 0.04688,-0.12269 0.05251,-0.19474 0.0032,-0.0412 -0.01055,-0.0505 -0.04542,-0.0284 -0.148357,-0.0365 -0.0947,-0.007 -0.164251,0.008 -0.183136,0.0375 -0.366765,0.21367 -0.18363,0.1762 -0.19329,0.29972 z" />
    <path
       inkscape:connector-curvature="0"
       id="path853"
       style="font-style:normal;font-variant:normal;font-weight:normal;font-stretch:normal;font-size:18.66670036px;line-height:1.25;font-family:Purisa;-inkscape-font-specification:Purisa;font-variant-ligatures:normal;font-variant-position:normal;font-variant-caps:normal;font-variant-numeric:normal;font-variant-alternates:normal;font-feature-settings:normal;text-indent:0;text-align:start;text-decoration:none;text-decoration-line:none;text-decoration-style:solid;text-decoration-color:#000000;letter-spacing:normal;word-spacing:normal;text-transform:none;writing-mode:lr-tb;direction:ltr;text-orientation:mixed;dominant-baseline:auto;baseline-shift:baseline;text-anchor:start;white-space:normal;shape-padding:0;fill:#000000;fill-opacity:1;stroke:none;stroke-width:0.11062655;stroke-linecap:butt;stroke-linejoin:miter;stroke-miterlimit:4;stroke-dasharray:none;stroke-dashoffset:0;stroke-opacity:1"
       d="m 61.931631,121.93848 q 0.01029,8e-4 0.009,0.0173 -0.0029,0.0371 -0.06492,0.11506 -0.05997,0.0782 -0.125916,0.12686 -0.231141,0.17456 -0.44731,0.15766 -0.08235,-0.006 -0.161802,-0.0499 -0.07723,-0.0454 -0.141756,-0.12087 -0.06452,-0.0755 -0.09858,-0.1962 -0.03406,-0.12073 -0.02279,-0.26484 0.0069,-0.0885 0.03234,-0.14868 0.051,-0.12236 0.195762,-0.25189 0.146825,-0.12937 0.266233,-0.12004 0.03294,0.003 0.09834,0.0139 0.09818,0.016 0.136326,0.0314 0.04021,0.0156 0.08862,0.0587 0.06202,0.0546 0.103249,0.13649 0.04345,0.08 0.03943,0.13151 -0.0052,0.0659 -0.05936,0.0969 -0.05404,0.0289 -0.20485,0.0503 -0.196904,0.0281 -0.382996,0.0239 l -0.192268,-0.005 -0.0064,0.0824 q -0.01191,0.15235 0.119514,0.29933 0.099,0.11131 0.214294,0.12033 0.08853,0.007 0.191532,-0.0389 0.105226,-0.0477 0.180376,-0.1081 0.07515,-0.0604 0.143157,-0.10894 0.06817,-0.0506 0.09081,-0.0488 z m -0.292175,-0.52826 q -0.05931,-0.0626 -0.09113,-0.0796 -0.02959,-0.0189 -0.08106,-0.0229 -0.102937,-0.008 -0.156016,0.009 -0.05086,0.0147 -0.106996,0.0703 -0.170472,0.16688 -0.175141,0.22658 -0.0021,0.0268 0.04732,0.0306 0.187346,0.0147 0.537274,-0.0367 0.10487,-0.0166 0.1097,-0.0784 0.0023,-0.0288 -0.08395,-0.11842 z" />
    <path
       inkscape:connector-curvature="0"
       id="path855"
       style="font-style:normal;font-variant:normal;font-weight:normal;font-stretch:normal;font-size:18.66670036px;line-height:1.25;font-family:Purisa;-inkscape-font-specification:Purisa;font-variant-ligatures:normal;font-variant-position:normal;font-variant-caps:normal;font-variant-numeric:normal;font-variant-alternates:normal;font-feature-settings:normal;text-indent:0;text-align:start;text-decoration:none;text-decoration-line:none;text-decoration-style:solid;text-decoration-color:#000000;letter-spacing:normal;word-spacing:normal;text-transform:none;writing-mode:lr-tb;direction:ltr;text-orientation:mixed;dominant-baseline:auto;baseline-shift:baseline;text-anchor:start;white-space:normal;shape-padding:0;fill:#000000;fill-opacity:1;stroke:none;stroke-width:0.11062655;stroke-linecap:butt;stroke-linejoin:miter;stroke-miterlimit:4;stroke-dasharray:none;stroke-dashoffset:0;stroke-opacity:1"
       d="m 63.31594,122.51278 q -0.0035,0.0453 -0.024,0.0685 -0.01856,0.0255 -0.0333,0.0285 -0.01284,0.005 -0.02313,0.004 -0.02676,-0.002 -0.04384,-0.0221 -0.01724,-0.0179 -0.02399,-0.064 -0.0069,-0.044 -0.0093,-0.067 -2.92e-4,-0.0228 -0.0016,-0.0851 0.0018,-0.20906 -0.01668,-0.21051 -0.02265,-0.002 -0.07673,0.0541 -0.251832,0.25373 -0.507117,0.23376 -0.07617,-0.006 -0.150094,-0.0407 -0.255791,-0.11943 -0.231963,-0.42413 0.0103,-0.13176 0.06288,-0.24778 0.05479,-0.11793 0.12917,-0.19496 0.07644,-0.0769 0.150781,-0.12699 0.07434,-0.0501 0.139937,-0.0678 0.08271,-0.0246 0.113588,-0.0222 0.05353,0.004 0.173636,0.084 0.122169,0.08 0.166427,0.14972 0.04979,0.0785 0.07861,0.0807 0.0021,1.6e-4 0.0021,1.6e-4 1.61e-4,-0.002 0.0022,-0.002 0.02377,-0.0126 0.06467,-0.53556 0.04041,-0.51675 0.07059,-0.58482 0.03175,-0.0617 0.08528,-0.0575 l 0.05559,0.004 -0.08264,0.84486 q -0.03081,0.3145 -0.05013,0.56155 -0.02624,0.33558 -0.0231,0.48082 0.0031,0.14524 0.0022,0.15759 z m -0.410425,-0.9497 q -0.115187,-0.0898 -0.162539,-0.0935 -0.04117,-0.003 -0.196235,0.1255 -0.15506,0.12873 -0.186975,0.19252 -0.02445,0.0478 -0.0346,0.1775 -0.0124,0.15852 0.01066,0.20797 0.01769,0.0387 0.09254,0.088 0.07691,0.0495 0.155142,0.0556 0.139996,0.0109 0.370206,-0.17819 0.181536,-0.14944 0.1854,-0.19885 0.0053,-0.0679 -0.0723,-0.18793 -0.07555,-0.11983 -0.161309,-0.18868 z" />
    <path
       inkscape:connector-curvature="0"
       id="path857"
       style="font-style:normal;font-variant:normal;font-weight:normal;font-stretch:normal;font-size:18.66670036px;line-height:1.25;font-family:Purisa;-inkscape-font-specification:Purisa;font-variant-ligatures:normal;font-variant-position:normal;font-variant-caps:normal;font-variant-numeric:normal;font-variant-alternates:normal;font-feature-settings:normal;text-indent:0;text-align:start;text-decoration:none;text-decoration-line:none;text-decoration-style:solid;text-decoration-color:#000000;letter-spacing:normal;word-spacing:normal;text-transform:none;writing-mode:lr-tb;direction:ltr;text-orientation:mixed;dominant-baseline:auto;baseline-shift:baseline;text-anchor:start;white-space:normal;shape-padding:0;fill:#000000;fill-opacity:1;stroke:none;stroke-width:0.11062655;stroke-linecap:butt;stroke-linejoin:miter;stroke-miterlimit:4;stroke-dasharray:none;stroke-dashoffset:0;stroke-opacity:1"
       d="m 63.796361,121.34898 q 0.03075,-0.0225 0.05134,-0.0208 0.04323,0.003 0.05097,0.14277 0.01,0.13749 -0.004,0.52788 -0.0059,0.18181 -0.01736,0.32799 -0.01143,0.14617 -0.02491,0.15961 -0.02712,0.029 -0.06418,0.026 -0.05147,-0.004 -0.06044,-0.0482 -0.0082,-0.0276 0.0016,-0.41828 0.01,-0.39278 0.02192,-0.54512 0.01,-0.12765 0.04501,-0.15183 z m 0.02548,-0.48478 q 0.0023,-0.0288 0.02715,-0.0559 0.02696,-0.0269 0.04549,-0.0254 0.02059,0.002 0.05333,0.0332 0.03496,0.0297 0.03158,0.0729 -0.0024,0.0309 -0.02271,0.0521 -0.01808,0.0193 -0.0469,0.017 -0.03294,-0.003 -0.06189,-0.0297 -0.02895,-0.0271 -0.02605,-0.0642 z" />
    <path
       inkscape:connector-curvature="0"
       id="path859"
       style="font-style:normal;font-variant:normal;font-weight:normal;font-stretch:normal;font-size:18.66670036px;line-height:1.25;font-family:Purisa;-inkscape-font-specification:Purisa;font-variant-ligatures:normal;font-variant-position:normal;font-variant-caps:normal;font-variant-numeric:normal;font-variant-alternates:normal;font-feature-settings:normal;text-indent:0;text-align:start;text-decoration:none;text-decoration-line:none;text-decoration-style:solid;text-decoration-color:#000000;letter-spacing:normal;word-spacing:normal;text-transform:none;writing-mode:lr-tb;direction:ltr;text-orientation:mixed;dominant-baseline:auto;baseline-shift:baseline;text-anchor:start;white-space:normal;shape-padding:0;fill:#000000;fill-opacity:1;stroke:none;stroke-width:0.11062655;stroke-linecap:butt;stroke-linejoin:miter;stroke-miterlimit:4;stroke-dasharray:none;stroke-dashoffset:0;stroke-opacity:1"
       d="m 64.633806,121.15555 q 0.006,-0.0762 7.22e-4,-0.19465 -0.0052,-0.11848 8.83e-4,-0.19671 0.0031,-0.0391 0.0061,-0.0513 0.0088,-0.0324 0.02667,-0.0497 0.02014,-0.0191 0.03867,-0.0177 0.0247,0.002 0.03323,0.0254 0.005,0.0149 0.0066,0.1538 0.0016,0.1389 0.0016,0.27146 -1.4e-5,0.13257 0.0038,0.13701 0.0019,0.002 0.006,0.003 0.01647,0.001 0.09599,-0.009 0.08174,-0.0122 0.133209,-0.008 0.102937,0.008 0.0994,0.0533 -0.0035,0.0453 -0.23435,0.0832 l -0.10487,0.0166 -0.01486,0.3489 q -0.0137,0.30755 -0.0058,0.57745 0.0081,0.26783 0.0053,0.30283 -0.005,0.0638 -0.05234,0.0601 -0.03706,-0.003 -0.05661,-0.0707 -0.01749,-0.0677 -0.0093,-0.17265 0.006,-0.0762 0.0059,-0.15489 1.03e-4,-0.0808 -0.0033,-0.24882 -0.0012,-0.16995 -0.0018,-0.34813 0.0012,-0.0952 0.0011,-0.14697 0.002,-0.0516 -2.2e-4,-0.0767 -0.0022,-0.025 -0.0039,-0.0293 -0.0016,-0.006 -0.0078,-0.007 -0.03294,-0.003 -0.160294,0.0102 -0.127354,0.0128 -0.158236,0.0104 -0.0597,-0.005 -0.05584,-0.0541 0.0027,-0.035 0.07878,-0.0539 0.0781,-0.0187 0.174256,-0.0299 0.09631,-0.0132 0.120086,-0.0258 0.02393,-0.0147 0.03118,-0.10735 z" />
    <path
       inkscape:connector-curvature="0"
       id="path861"
       style="font-style:normal;font-variant:normal;font-weight:normal;font-stretch:normal;font-size:18.66670036px;line-height:1.25;font-family:Purisa;-inkscape-font-specification:Purisa;font-variant-ligatures:normal;font-variant-position:normal;font-variant-caps:normal;font-variant-numeric:normal;font-variant-alternates:normal;font-feature-settings:normal;text-indent:0;text-align:start;text-decoration:none;text-decoration-line:none;text-decoration-style:solid;text-decoration-color:#000000;letter-spacing:normal;word-spacing:normal;text-transform:none;writing-mode:lr-tb;direction:ltr;text-orientation:mixed;dominant-baseline:auto;baseline-shift:baseline;text-anchor:start;white-space:normal;shape-padding:0;fill:#000000;fill-opacity:1;stroke:none;stroke-width:0.11062655;stroke-linecap:butt;stroke-linejoin:miter;stroke-miterlimit:4;stroke-dasharray:none;stroke-dashoffset:0;stroke-opacity:1"
       d="m 65.43512,121.47713 q 0.03075,-0.0225 0.05134,-0.0208 0.04323,0.003 0.05097,0.14277 0.01,0.13748 -0.004,0.52788 -0.0059,0.18181 -0.01736,0.32798 -0.01143,0.14617 -0.02491,0.15962 -0.02712,0.0289 -0.06418,0.026 -0.05147,-0.004 -0.06044,-0.0482 -0.0082,-0.0276 0.0016,-0.41828 0.01,-0.39277 0.02192,-0.54512 0.01,-0.12764 0.04502,-0.15183 z m 0.02548,-0.48477 q 0.0023,-0.0288 0.02715,-0.0559 0.02696,-0.0269 0.04549,-0.0254 0.02059,0.002 0.05333,0.0332 0.03496,0.0297 0.03158,0.0729 -0.0024,0.0309 -0.02271,0.0521 -0.01808,0.0193 -0.0469,0.017 -0.03294,-0.003 -0.06189,-0.0297 -0.02895,-0.0271 -0.02605,-0.0642 z" />
    <path
       inkscape:connector-curvature="0"
       id="path863"
       style="font-style:normal;font-variant:normal;font-weight:normal;font-stretch:normal;font-size:18.66670036px;line-height:1.25;font-family:Purisa;-inkscape-font-specification:Purisa;font-variant-ligatures:normal;font-variant-position:normal;font-variant-caps:normal;font-variant-numeric:normal;font-variant-alternates:normal;font-feature-settings:normal;text-indent:0;text-align:start;text-decoration:none;text-decoration-line:none;text-decoration-style:solid;text-decoration-color:#000000;letter-spacing:normal;word-spacing:normal;text-transform:none;writing-mode:lr-tb;direction:ltr;text-orientation:mixed;dominant-baseline:auto;baseline-shift:baseline;text-anchor:start;white-space:normal;shape-padding:0;fill:#000000;fill-opacity:1;stroke:none;stroke-width:0.11062655;stroke-linecap:butt;stroke-linejoin:miter;stroke-miterlimit:4;stroke-dasharray:none;stroke-dashoffset:0;stroke-opacity:1"
       d="m 66.066201,121.77711 q 0.172335,-0.13773 0.285151,-0.17654 0.115037,-0.0407 0.283854,-0.0275 0.255286,0.02 0.307192,0.1773 0.03203,0.0936 0.02173,0.22541 -0.01707,0.21823 -0.131376,0.43506 -0.114149,0.21478 -0.262965,0.29014 -0.144537,0.0736 -0.296885,0.0617 -0.212051,-0.0166 -0.328262,-0.17274 -0.08048,-0.10986 -0.101766,-0.18195 -0.02113,-0.0741 -0.01082,-0.20591 0.01948,-0.24911 0.234153,-0.42496 z m 0.265287,0.87207 q 0.172936,0.0135 0.331445,-0.21228 0.16073,-0.22771 0.184236,-0.52829 0.0035,-0.0453 -0.005,-0.0687 -0.0085,-0.0235 -0.03351,-0.0482 -0.07118,-0.0698 -0.157651,-0.0765 -0.01441,-0.001 -0.03326,0.002 -0.01663,7.7e-4 -0.05623,0.004 -0.03944,0.001 -0.09345,0.003 -0.07286,0.005 -0.117866,0.0239 -0.04278,0.0174 -0.111275,0.0721 -0.130482,0.10579 -0.189679,0.20058 -0.05904,0.0927 -0.06805,0.20803 -0.01336,0.17088 0.0831,0.2882 0.09852,0.11749 0.267178,0.13275 z" />
    <path
       inkscape:connector-curvature="0"
       id="path865"
       style="font-style:normal;font-variant:normal;font-weight:normal;font-stretch:normal;font-size:18.66670036px;line-height:1.25;font-family:Purisa;-inkscape-font-specification:Purisa;font-variant-ligatures:normal;font-variant-position:normal;font-variant-caps:normal;font-variant-numeric:normal;font-variant-alternates:normal;font-feature-settings:normal;text-indent:0;text-align:start;text-decoration:none;text-decoration-line:none;text-decoration-style:solid;text-decoration-color:#000000;letter-spacing:normal;word-spacing:normal;text-transform:none;writing-mode:lr-tb;direction:ltr;text-orientation:mixed;dominant-baseline:auto;baseline-shift:baseline;text-anchor:start;white-space:normal;shape-padding:0;fill:#000000;fill-opacity:1;stroke:none;stroke-width:0.11062655;stroke-linecap:butt;stroke-linejoin:miter;stroke-miterlimit:4;stroke-dasharray:none;stroke-dashoffset:0;stroke-opacity:1"
       d="m 67.36567,121.68817 q 0.0055,-0.07 0.04665,-0.0668 0.02676,0.002 0.03429,0.0648 0.0077,0.0607 0.01728,0.36176 0.01178,0.32612 0.01683,0.34102 0.0089,-0.008 0.07274,-0.16209 0.05894,-0.14453 0.09022,-0.20008 0.03349,-0.0575 0.111216,-0.1508 0.16655,-0.19618 0.2489,-0.18974 0.05353,0.004 0.09524,0.0799 0.05642,0.0997 0.06358,0.19346 0.0072,0.0938 -0.01371,0.44012 -0.01327,0.22267 -0.01649,0.26385 -0.0081,0.10293 -0.01999,0.14964 -0.0097,0.0448 -0.02493,0.054 -0.01332,0.0114 -0.04642,0.0109 -0.01853,-0.001 -0.02342,-0.0184 -0.005,-0.0149 -7.02e-4,-0.0705 0.0024,-0.0309 0.01442,-0.13143 0.01216,-0.10262 0.01764,-0.17262 0.01368,-0.17499 0.01231,-0.34288 8.49e-4,-0.16978 -0.01398,-0.21858 -0.0082,-0.0276 -0.02859,-0.0582 -0.02039,-0.0306 -0.04098,-0.0322 -0.04323,-0.003 -0.149529,0.13745 -0.106133,0.13876 -0.186791,0.29609 -0.07606,0.15147 -0.104821,0.22794 -0.02876,0.0765 -0.05126,0.20519 -0.03907,0.20822 -0.04936,0.20742 -0.01647,-0.001 -0.04461,-0.0387 -0.02088,-0.0244 -0.02331,-0.0992 -0.0023,-0.0768 6.99e-4,-0.30029 0.0031,-0.22553 -0.0037,-0.45598 -0.0062,-0.23869 5.72e-4,-0.32516 z" />
  </g>
</svg>
